<svg width="15" height="18" viewBox="0 0 15 18" fill="none" xmlns="http://www.w3.org/2000/svg">
<path d="M11.2055 8.8994L10.7215 6.5368L9.54016 7.2341C9.04796 6.988 8.49006 6.8485 7.89936 6.8485C7.31686 6.8485 6.75906 6.9797 6.25866 7.2341V7.2587L5.06906 8.358L4.59326 8.8994C4.33896 9.3998 4.20776 9.9577 4.20776 10.5402V13.5814C4.20776 15.6159 5.86096 17.2692 7.89546 17.2692C9.98746 17.2692 11.5872 15.5628 11.5872 13.5775L11.5911 10.5402C11.5911 9.9495 11.4517 9.3916 11.2055 8.8994ZM9.53626 13.5775C9.53626 14.4963 8.78976 15.2183 7.89546 15.2183C6.99306 15.2183 6.25476 14.4799 6.25476 13.5775L6.25856 10.5648L7.89936 10.5566L9.54006 10.5401L9.53626 13.5775Z" fill="#4A696F"/>
<path d="M11.591 10.5401L11.5871 13.5775C11.5871 15.5628 9.98745 17.2692 7.89545 17.2692V15.2183C8.78975 15.2183 9.53625 14.4963 9.53625 13.5775L9.54015 10.5402L7.89935 10.5565V6.84848C8.49005 6.84848 9.04785 6.98788 9.54015 7.23398L10.7214 6.53668L11.2054 8.89938C11.4515 9.39158 11.591 9.94948 11.591 10.5401Z" fill="#384949"/>
<path d="M14.4624 9.3096H13.642C13.4153 9.3096 13.2318 9.1262 13.2318 8.8994C13.2318 8.6727 13.4153 8.4892 13.642 8.4892H14.4624C14.6891 8.4892 14.8726 8.6727 14.8726 8.8994C14.8725 9.1262 14.6891 9.3096 14.4624 9.3096Z" fill="#D2C5C2"/>
<path d="M2.15687 9.30959H1.33647C1.10967 9.30959 0.92627 9.12619 0.92627 8.89949C0.92627 8.67279 1.10977 8.48929 1.33647 8.48929H2.15677C2.38347 8.48929 2.56697 8.67279 2.56697 8.89949C2.56697 9.12619 2.38347 9.30959 2.15687 9.30959Z" fill="#DFD7D5"/>
<path d="M12.5172 6.2332C12.4038 6.0369 12.4711 5.7862 12.6674 5.6728L13.378 5.2626C13.5735 5.1485 13.8247 5.217 13.9384 5.4128C14.0518 5.6091 13.9845 5.8599 13.7882 5.9732L13.0776 6.3834C12.8826 6.4961 12.6315 6.4305 12.5172 6.2332Z" fill="#D2C5C2"/>
<path d="M1.86039 12.386C1.74699 12.1897 1.81429 11.939 2.01059 11.8256L2.72119 11.4154C2.91589 11.3016 3.16789 11.3694 3.28159 11.5656C3.39499 11.7619 3.32769 12.0127 3.13149 12.126L2.42079 12.5362C2.22579 12.6488 1.97459 12.5833 1.86039 12.386Z" fill="#DFD7D5"/>
<path d="M13.378 12.5362L12.6674 12.126C12.4711 12.0126 12.4038 11.7619 12.5172 11.5656C12.6306 11.3693 12.8805 11.3016 13.0776 11.4154L13.7882 11.8256C13.9845 11.939 14.0518 12.1897 13.9384 12.386C13.8242 12.5832 13.573 12.6489 13.378 12.5362Z" fill="#D2C5C2"/>
<path d="M2.72119 6.38349L2.01059 5.97329C1.81429 5.85989 1.74699 5.60919 1.86039 5.41289C1.97419 5.21699 2.22409 5.14849 2.42079 5.26269L3.13139 5.67289C3.32769 5.78629 3.39499 6.03699 3.28159 6.23329C3.16739 6.43049 2.91619 6.49609 2.72119 6.38349Z" fill="#DFD7D5"/>
<path d="M7.90326 0.529694C5.86876 0.529694 4.21156 2.17859 4.21156 4.22139L4.20776 7.25869C4.20776 7.84939 4.34716 8.40719 4.59326 8.89949C4.95426 9.62139 5.53666 10.2038 6.25866 10.5648C6.75086 10.8109 7.30876 10.9504 7.89936 10.9504C8.47366 10.9504 9.03146 10.8191 9.54016 10.5648V10.5402C9.54016 9.63779 8.80176 8.89949 7.89936 8.89949C6.99696 8.89949 6.25866 8.16109 6.25866 7.25869L6.26257 4.22139C6.26257 3.77829 6.43486 3.37639 6.74656 3.06459C6.74656 3.04829 6.82036 2.98259 6.84496 2.97439C7.06646 2.75289 7.47666 2.58059 7.90326 2.58059C8.80566 2.58059 9.54396 3.31889 9.54396 4.22139L9.54016 7.23409C10.2621 7.59499 10.8446 8.17749 11.2056 8.89939C11.4517 8.39899 11.5911 7.83299 11.5911 7.25869L11.595 4.22129C11.595 2.18679 9.93776 0.529694 7.90326 0.529694Z" fill="#FFD400"/>
<path d="M9.54005 10.5401V10.5647C9.03145 10.819 8.47355 10.9504 7.89935 10.9503V8.89938C8.80175 8.89938 9.54005 9.63768 9.54005 10.5401Z" fill="#FF9F00"/>
<path d="M11.5949 4.22139L11.5911 7.25869C11.5911 7.83299 11.4516 8.39909 11.2055 8.89949C10.8445 8.17749 10.2621 7.59509 9.54006 7.23409L9.54396 4.22139C9.54396 3.31899 8.80566 2.58069 7.90326 2.58069V0.529724C9.93776 0.529684 11.5949 2.18679 11.5949 4.22139Z" fill="#FF9F00"/>
</svg>
